<svg width="1200" height="1200" xmlns="http://www.w3.org/2000/svg" xml:space="preserve" enable-background="new 0 0 1200 1200" version="1.1">

 <g>
  <title>Layer 1</title>
  <g stroke="null" id="svg_10">
   <path stroke="null" id="svg_2" d="m401.96983,100.61974c33.35403,-19.791 77.6826,-33.983 135.86668,-39.744c15.91207,-1.837 32.06487,-2.876 48.46037,-2.876c1.46602,0 2.90847,0.097 4.36958,0.113c2.63432,-0.03 5.18316,-0.113 7.86269,-0.113c374.03968,0 432.15694,273.685 441.15157,353.51c4.20647,37.31 53.6907,368.767 53.6907,368.767l-128.84214,0l0,263.649l-259.05795,0l0.65342,114.074l-335.64988,0l0,-293.431c-125.55341,-75.335 -209.8459,-214.293 -209.8459,-373.36c-0.00098,-172.049 98.55184,-320.67 241.34086,-390.589zm110.1464,493.575l0,-78.322l-166.91948,-80.441l166.91948,-78.335l0,-0.041l28.85278,-13.541l111.749,248.315l16.01917,35.812l62.50256,-30.778l230.79865,-110.677l0,-72.508l-252.72516,-121.191l0,78.322l166.93029,80.442l-142.96983,67.09l-53.1149,24.18l-98.01632,-218.329l-34.87311,16.366l35.05292,-16.451l-29.12889,-64.379l-40.80304,19.67l-0.27414,0l0,-0.095l-252.71336,121.192l0,72.507l252.71336,121.192z" fill=" rgb(255, 255, 255)"/>
   <polygon stroke="null" id="svg_3" points="512.2066224092705,279.48675537109375 458.77141577950533,305.24676513671875 512.1163033797093,279.53076171875 512.1163033797093,279.3987121582031 512.1663781076168,279.50775146484375 " fill=" rgb(255, 255, 255)"/>
   <polygon stroke="null" id="svg_4" points="512.1163033797093,279.3037109375 512.1163033797093,279.3987121582031 512.1163033797093,279.53076171875 458.77141577950533,305.24676513671875 345.66949849908633,435.16876220703125 512.1163033797093,357.0557556152344 512.1163033797093,357.0967102050781 345.1978925483236,435.4317321777344 512.1163033797093,515.8726806640625 512.1163033797093,594.1947021484375 259.4029269528546,473.00274658203125 259.4029269528546,400.4957275390625 " fill=" rgb(111, 34, 50)"/>
   <polygon stroke="null" id="svg_5" points="512.1663781076168,279.50775146484375 512.1163033797093,279.3987121582031 512.3904100224354,279.3987121582031 512.2066224092705,279.48675537109375 " fill=" rgb(111, 34, 50)"/>
   <polygon stroke="null" id="svg_6" points="748.2454007660272,511.5257263183594 733.2737570225872,518.3406982421875 876.2434679338985,451.2517395019531 709.3122043769254,370.80975341796875 709.3122043769254,292.48773193359375 962.0383380883359,413.6787414550781 962.0383380883359,486.186767578125 731.2397177573439,596.86376953125 815.433850929956,555.4027099609375 " fill=" rgb(0, 0, 0)"/>
   <polygon stroke="null" id="svg_7" points="458.77141577950533,305.24676513671875 512.2066224092705,279.48675537109375 512.3904100224354,279.3987121582031 553.1934552887687,259.7287292480469 582.3223762667694,324.10772705078125 547.269366830631,340.5587158203125 540.9700678636364,343.5147705078125 540.9700678636364,343.5147705078125 512.1163033797093,357.0557556152344 345.66949849908633,435.16876220703125 " fill=" rgb(0, 0, 0)"/>
   <polygon stroke="null" id="svg_8" points="547.269366830631,340.5587158203125 582.1434561462156,324.1927185058594 680.1589141221921,542.5216674804688 733.2737570225872,518.3406982421875 748.2454007660272,511.5257263183594 815.433850929956,555.4027099609375 731.2397177573439,596.86376953125 668.7371677350602,627.6417846679688 652.718154110953,591.8297729492188 540.9700678636364,343.5147705078125 540.9700678636364,343.5147705078125 " fill=" rgb(111, 34, 50)"/>
  </g>
 </g>
</svg>